Coordinates
version=1
nRows=17
nColumns=40
inDegrees=yes

Units are S.I. units (second, meters, Newtons, ...)
Angles are in degrees.

endheader
time	pelvis_tilt	pelvis_list	pelvis_rotation	pelvis_tx	pelvis_ty	pelvis_tz	hip_flexion_r	hip_adduction_r	hip_rotation_r	knee_angle_r	knee_angle_r_beta	ankle_angle_r	subtalar_angle_r	mtp_angle_r	hip_flexion_l	hip_adduction_l	hip_rotation_l	knee_angle_l	knee_angle_l_beta	ankle_angle_l	subtalar_angle_l	mtp_angle_l	lumbar_extension	lumbar_bending	lumbar_rotation	arm_flex_r	arm_add_r	arm_rot_r	elbow_flex_r	pro_sup_r	wrist_flex_r	wrist_dev_r	arm_flex_l	arm_add_l	arm_rot_l	elbow_flex_l	pro_sup_l	wrist_flex_l	wrist_dev_l
     43.31500000	     -3.29634521	     -5.00036505	     -2.14981412	      1.06816079	      0.92707452	      0.51358301	     16.91537284	      2.07912815	    -12.49763952	     21.17176390	     21.17176390	      8.85957097	     -0.84055147	     -2.59047629	     10.62733450	    -11.67007985	     -5.40466525	     43.29178548	     43.29178548	     12.82768152	    -12.59170582	     -7.36432626	     -9.50510413	      6.59552256	      1.69816649	     -0.34158428	    -12.73342622	    -11.03876670	     25.99139422	     46.64467963	      0.00000000	      0.00000000	     12.24074807	    -12.32751774	     -5.61724898	     43.41581834	     46.62045764	      0.00000000	      0.00000000
     43.32828571	     -3.36225345	     -4.99442508	     -1.80801319	      1.06816360	      0.92760999	      0.51570451	     16.34428308	      2.08108319	    -13.30292025	     20.75203573	     20.75203573	      9.15351196	      0.14040310	     -2.66997758	     12.71019369	    -11.89417298	     -4.17401888	     46.87673927	     46.87673927	     11.96131603	    -13.47272852	     -5.34055885	     -9.36624169	      6.59395108	      1.78971592	      0.65313066	    -13.17825603	     -8.88398686	     27.45779315	     46.41023002	      0.00000000	      0.00000000	     12.38382275	    -11.70225366	     -5.90567677	     40.28770168	     46.62210540	      0.00000000	      0.00000000
     43.34157143	     -3.34641523	     -5.09542317	     -1.47386058	      1.06795354	      0.92815848	      0.51785169	     15.69552745	      2.29931738	    -13.72636721	     20.29047577	     20.29047577	      9.33288799	      0.47768978	     -2.68863348	     14.65047198	    -12.25745735	     -3.13412338	     50.09770256	     50.09770256	     10.92774108	    -14.17996947	     -4.15046644	     -9.41403043	      6.66957968	      1.63964826	      2.17643816	    -13.38368137	     -8.38474924	     28.56339614	     46.33643339	      0.00000000	      0.00000000	     11.58930441	    -11.47944705	     -5.83148118	     39.39353515	     46.59322752	      0.00000000	      0.00000000
     43.35485714	     -3.36764078	     -5.15702729	     -1.16819570	      1.06755258	      0.92862053	      0.51982047	     15.09344333	      2.47119080	    -14.17980489	     19.81679018	     19.81679018	      9.47542115	      0.85421212	     -2.86812076	     16.71443027	    -12.56066054	     -2.22629816	     53.24901059	     53.24901059	     11.43658432	    -14.08754379	      0.39394123	     -9.41457642	      6.69232753	      1.95760361	      3.31972642	    -13.94997953	     -6.46236529	     29.99154273	     46.14255298	      0.00000000	      0.00000000	     11.37289417	    -10.96016446	     -5.86160539	     37.81000754	     46.56736201	      0.00000000	      0.00000000
     43.36814286	     -3.38845245	     -5.25667671	     -0.86916986	      1.06702288	      0.92909067	      0.52172045	     14.48884402	      2.73282515	    -14.43644289	     19.30192965	     19.30192965	      9.62124371	      0.97439522	     -2.82268615	     18.52807919	    -12.88521417	     -1.45345618	     55.50571593	     55.50571593	     10.49053484	    -14.84334552	      0.88658177	     -9.46168652	      6.75559744	      2.13828081	      4.87866260	    -14.21662296	     -6.38037139	     30.79072084	     46.11667095	      0.00000000	      0.00000000	     10.65160500	    -10.62621454	     -5.74722035	     37.24763663	     46.53887993	      0.00000000	      0.00000000
     43.38142857	     -3.38943089	     -5.31402137	     -0.58571066	      1.06632534	      0.92957647	      0.52342352	     13.89682172	      2.94440474	    -14.66467251	     18.82144156	     18.82144156	      9.74524884	      1.04917903	     -2.79779123	     20.22828402	    -13.14820137	     -0.83629724	     57.23974009	     57.23974009	      9.85100537	    -15.56144454	      1.54993876	     -9.51302659	      6.74365797	      2.33163234	      6.51498398	    -14.51722847	     -6.30588621	     31.65824644	     46.08915363	      0.00000000	      0.00000000	      9.94095476	    -10.29956604	     -5.62149009	     36.62609741	     46.50752938	      0.00000000	      0.00000000
     43.39471429	     -3.44546786	     -5.33880768	     -0.25247059	      1.06551850	      0.93002905	      0.52494673	     13.28549698	      3.14746954	    -14.82616004	     18.15973743	     18.15973743	      9.85325731	      1.11997711	     -2.80331178	     21.93898269	    -13.29355055	     -0.19896295	     58.46865666	     58.46865666	      9.58671137	    -16.32243196	      2.74110969	     -9.47538174	      6.67909773	      2.13379298	      8.24110038	    -14.70315083	     -6.12423350	     32.73827855	     46.04601174	      0.00000000	      0.00000000	      9.16450120	    -10.09344791	     -5.47640302	     35.68066873	     46.47192438	      0.00000000	      0.00000000
     43.40800000	     -3.45506231	     -5.19182424	      0.02888413	      1.06452087	      0.93066480	      0.52617456	     12.70857476	      3.14322042	    -14.91917263	     17.61465731	     17.61465731	      9.70794245	      0.96932753	     -3.45222589	     23.54817315	    -13.24891088	      0.18929435	     59.30738484	     59.30738484	     10.97272011	    -16.27823593	      7.40847944	     -9.59868326	      6.49553775	      2.39337140	      9.68066179	    -15.27892160	     -4.51734426	     34.40140025	     45.88742696	      0.00000000	      0.00000000	      8.87468552	     -9.74798207	     -5.37020286	     34.01467128	     46.43397521	      0.00000000	      0.00000000
     43.42128571	     -3.49831443	     -5.15439616	      0.33803771	      1.06347698	      0.93124540	      0.52733169	     12.10521655	      3.27685320	    -15.02407006	     16.95584810	     16.95584810	      9.77360096	      0.96532051	     -3.37974395	     24.94464447	    -13.36512416	      0.43524127	     59.22011678	     59.22011678	     10.83578574	    -16.74284428	      7.70186023	     -9.65048140	      6.41099340	      2.48151939	     11.41574095	    -15.54014709	     -4.49338419	     35.39108563	     45.85966337	      0.00000000	      0.00000000	      8.06601071	     -9.48953545	     -5.28176536	     33.51117566	     46.40624000	      0.00000000	      0.00000000
     43.43457143	     -3.51020489	     -5.05996081	      0.67997374	      1.06234418	      0.93186603	      0.52829556	     11.46727707	      3.34684707	    -15.11053858	     16.27468768	     16.27468768	      9.80214813	      0.88836238	     -3.37089375	     26.17224122	    -13.35755420	      0.62253215	     58.52357504	     58.52357504	     10.86151879	    -17.15859132	      8.11239260	     -9.72915676	      6.22316116	      2.42049854	     13.21858927	    -15.73899091	     -4.44014214	     36.56345312	     45.82316077	      0.00000000	      0.00000000	      7.24874050	     -9.28464122	     -5.18486239	     32.92401298	     46.37679059	      0.00000000	      0.00000000
     43.44785714	     -3.53712341	     -4.94204982	      1.04490188	      1.06110911	      0.93243076	      0.52903688	     10.85092095	      3.37808609	    -15.20513922	     15.59450569	     15.59450569	      9.81465180	      0.80008453	     -3.43549295	     27.27641627	    -13.27512885	      0.73387758	     57.24659508	     57.24659508	     10.97307885	    -17.38116300	      8.51860891	     -9.81811988	      6.03084262	      2.38319046	     14.97521566	    -15.96139757	     -4.37784284	     37.81474776	     45.78280650	      0.00000000	      0.00000000	      6.46226472	     -9.06854180	     -5.08953604	     32.36716649	     46.34793434	      0.00000000	      0.00000000
     43.46114286	     -3.58032951	     -4.80438892	      1.42946210	      1.05983249	      0.93292384	      0.52956962	     10.25478145	      3.37758920	    -15.31726901	     14.91441809	     14.91441809	      9.82916422	      0.71893038	     -3.53261559	     28.23095761	    -13.11436806	      0.77836659	     55.39877022	     55.39877022	     11.08405425	    -17.43925838	      8.87254228	     -9.88515876	      5.83054299	      2.34502086	     16.68198619	    -16.17511846	     -4.34150194	     39.11735817	     45.74174093	      0.00000000	      0.00000000	      5.69603877	     -8.86366930	     -4.99806397	     31.84993428	     46.32022829	      0.00000000	      0.00000000
     43.47442857	     -3.64043340	     -4.72420196	      1.86705354	      1.05848149	      0.93321205	      0.52989822	      9.64192192	      3.43761577	    -15.48848032	     14.12639313	     14.12639313	      9.49916022	      0.50921635	     -4.52452677	     29.08824828	    -12.92404299	      0.86916082	     53.09237323	     53.09237323	     11.13720248	    -17.30509155	      8.97096822	     -9.96213388	      5.71501314	      2.38194237	     17.89974057	    -16.71086016	     -3.73697615	     41.81311388	     45.61529051	      0.00000000	      0.00000000	      4.97372622	     -8.62197142	     -4.89604164	     31.38397802	     46.28172322	      0.00000000	      0.00000000
     43.48771429	     -3.79825096	     -4.80390728	      2.33604897	      1.05700747	      0.93299377	      0.53015942	      9.44610344	      3.56515016	    -15.75704624	     13.97847275	     13.97847275	      9.77437591	      0.34027502	     -4.62227021	     30.02990306	    -12.82428874	      1.08735860	     50.51912045	     50.51912045	     11.29876173	    -16.82852161	      9.21288741	     -9.83280215	      5.74807747	      2.93323180	     19.30834178	    -17.18523998	     -3.84652535	     42.39239554	     45.60859970	      0.00000000	      0.00000000	      4.51154802	     -8.34091492	     -4.84910402	     31.19984850	     46.26707090	      0.00000000	      0.00000000
     43.50100000	     -3.75936501	     -4.51525713	      2.79612803	      1.05570370	      0.93356217	      0.52995918	      8.57346423	      3.40950700	    -15.91851247	     12.94037522	     12.94037522	      9.65103238	      0.44866397	     -4.64015387	     30.27404966	    -12.24121839	      1.01653534	     47.14022985	     47.14022985	     11.12586242	    -16.58635849	      9.35011897	    -10.08051106	      5.41910953	      2.16861592	     21.31465271	    -17.09595489	     -3.96309344	     44.38837048	     45.55208004	      0.00000000	      0.00000000	      3.53071593	     -8.21906700	     -4.70144801	     30.46942295	     46.22716433	      0.00000000	      0.00000000
     43.51428571	     -3.82890925	     -4.50726932	      3.29774345	      1.05433340	      0.93347762	      0.52974714	      8.03167901	      3.48496454	    -16.25575665	     12.29691466	     12.29691466	      9.63500552	      0.50946567	     -4.98763461	     30.68654134	    -11.91495743	      1.11652416	     43.71417113	     43.71417113	     10.90230621	    -15.86839413	      9.06806531	    -10.14317263	      5.39906329	      1.96319391	     22.81747167	    -17.30344841	     -4.04259292	     46.38504160	     45.49193010	      0.00000000	      0.00000000	      2.77626540	     -8.02605432	     -4.59450664	     30.04986123	     46.19524425	      0.00000000	      0.00000000
     43.52757143	     -4.06681292	     -4.48150200	      3.75159487	      1.05287875	      0.93301385	      0.52944372	      7.81730579	      3.48877745	    -16.53320637	     11.93675430	     11.93675430	      9.75283425	      0.43156992	     -5.15650548	     31.17967173	    -11.55601706	      1.07731237	     40.16217766	     40.16217766	     10.83275253	    -14.77280616	      9.23542761	     -9.97816878	      5.30498716	      2.12429718	     24.25845513	    -17.75040978	     -4.18881615	     47.50930923	     45.46673429	      0.00000000	      0.00000000	      2.18465761	     -7.72959171	     -4.52238026	     29.78752857	     46.17333041	      0.00000000	      0.00000000
